<svg xmlns="http://www.w3.org/2000/svg" viewBox="0 0 128 128" role="img" aria-label="The Wine Guide">
  <rect x="24" y="28" width="80" height="92" rx="9" fill="#5a1a2b"/>
  <path d="M24 82h80v38L64 92l-40 28V82Z" fill="#5a1a2b"/>
  <path d="M60 31c-4-11-11-20-20-26" fill="none" stroke="#8a8177" stroke-width="8" stroke-linecap="round"/>
  <path d="M65 30c5-12 13-19 26-22" fill="none" stroke="#8a8177" stroke-width="8" stroke-linecap="round"/>
  <path d="M63 13v24" fill="none" stroke="#f4efe6" stroke-width="6" stroke-linecap="round"/>
  <g fill="#f4efe6">
    <circle cx="46" cy="57" r="8"/>
    <circle cx="64" cy="57" r="8"/>
    <circle cx="82" cy="57" r="8"/>
    <circle cx="55" cy="73" r="8"/>
    <circle cx="73" cy="73" r="8"/>
    <circle cx="46" cy="89" r="8"/>
    <circle cx="64" cy="89" r="8"/>
    <circle cx="82" cy="89" r="8"/>
    <circle cx="64" cy="105" r="8"/>
  </g>
</svg>
