<svg xmlns="http://www.w3.org/2000/svg" viewBox="0 0 128 128" role="img" aria-label="The Wine Guide">
  <rect x="8" y="8" width="112" height="112" rx="24" fill="#f4efe6"/>
  <path d="M22 41c15 0 28 4 42 14v47c-13-10-27-15-42-15V41Z" fill="#fffaf1" stroke="#3a3530" stroke-width="4" stroke-linejoin="round"/>
  <path d="M106 41c-15 0-28 4-42 14v47c13-10 27-15 42-15V41Z" fill="#fffaf1" stroke="#3a3530" stroke-width="4" stroke-linejoin="round"/>
  <path d="M64 55v47" fill="none" stroke="#3a3530" stroke-width="4" stroke-linecap="round"/>
  <path d="M50 22h28l-5 36c-1 8-5 13-9 13s-8-5-9-13L50 22Z" fill="#fffaf1" stroke="#3a3530" stroke-width="4" stroke-linejoin="round"/>
  <path d="M56 43c5 0 11 2 16 5l-2 11c-1 5-3 8-6 8s-5-3-6-8l-2-16Z" fill="#5a1a2b"/>
  <text x="43" y="82" text-anchor="middle" fill="#1f1f1f" font-family="Georgia, 'Times New Roman', serif" font-size="28" font-style="italic">T</text>
  <text x="86" y="82" text-anchor="middle" fill="#1f1f1f" font-family="Georgia, 'Times New Roman', serif" font-size="28" font-style="italic">W</text>
</svg>
