<svg xmlns="http://www.w3.org/2000/svg" width="4in" height="5in" viewBox="0 0 1200 1500" role="img" aria-labelledby="title desc">
  <title id="title">The Wine Guide classic wine label</title>
  <desc id="desc">A classic old-world inspired wine bottle label for The Wine Guide.</desc>
  <rect width="1200" height="1500" fill="#fff8ef"/>
  <rect x="74" y="74" width="1052" height="1352" fill="none" stroke="#570013" stroke-width="10"/>
  <rect x="112" y="112" width="976" height="1276" fill="none" stroke="#8a4a2f" stroke-width="3"/>
  <rect x="150" y="150" width="900" height="1200" fill="none" stroke="#570013" stroke-width="2"/>

  <g fill="#570013" stroke="#570013" stroke-width="3">
    <path d="M600 238c64 0 116 52 116 116 0 88-116 168-116 168s-116-80-116-168c0-64 52-116 116-116z" fill="none"/>
    <path d="M558 322c22-42 62-46 84-4" fill="none"/>
    <path d="M600 306v142" fill="none"/>
    <path d="M552 416h96" fill="none"/>
  </g>

  <text x="600" y="642" font-family="Playfair Display, Georgia, serif" font-size="52" font-weight="700" text-anchor="middle" fill="#570013" letter-spacing="4">THE WINE GUIDE</text>
  <text x="600" y="728" font-family="Inter, Arial, sans-serif" font-size="25" font-weight="700" text-anchor="middle" fill="#1f1f1f" letter-spacing="5">GRAND TABLE SELECTION</text>

  <path d="M240 802h720" stroke="#8a4a2f" stroke-width="3"/>
  <text x="600" y="925" font-family="Playfair Display, Georgia, serif" font-size="104" font-weight="700" text-anchor="middle" fill="#1f1f1f">Claire's Cuvee</text>
  <text x="600" y="1004" font-family="Inter, Arial, sans-serif" font-size="32" text-anchor="middle" fill="#3a3530">A smarter bottle for tonight.</text>
  <path d="M270 1068h660" stroke="#8a4a2f" stroke-width="3"/>

  <g font-family="Inter, Arial, sans-serif" fill="#1f1f1f" text-anchor="middle">
    <text x="600" y="1166" font-size="30" font-weight="700" letter-spacing="4">RED WINE</text>
    <text x="600" y="1226" font-size="23" letter-spacing="2">SELECTED FOR CURIOUS DRINKERS</text>
    <text x="600" y="1292" font-size="24">750 ml | 13.5% alc/vol</text>
  </g>
  <text x="600" y="1368" font-family="Inter, Arial, sans-serif" font-size="24" text-anchor="middle" fill="#570013">wineguide.co</text>
</svg>
